REM MD5 043d69f15c71e91ffb2bca32bb90fcfa
FILE "OPSM Best Racing Game Ever (Europe).bin" BINARY
  TRACK 01 MODE2/2352
    INDEX 01 00:00:00
  TRACK 02 AUDIO
    INDEX 00 38:37:13
    INDEX 01 38:39:13
  TRACK 03 AUDIO
    INDEX 00 42:19:21
    INDEX 01 42:21:21
  TRACK 04 AUDIO
    INDEX 00 46:01:24
    INDEX 01 46:03:24
REM LEADOUT 49:04:56
